<svg width="48" height="48" viewBox="0 0 48 48" fill="none" xmlns="http://www.w3.org/2000/svg">
<g id="Frame 19">
<rect width="48" height="48" rx="12" fill="#0369a1"/>
<path id="Vector" d="M23.997 17.8428C20.5897 17.8428 17.8398 20.5927 17.8398 24C17.8398 27.4073 20.5897 30.1572 23.997 30.1572C27.4043 30.1572 30.1542 27.4073 30.1542 24C30.1542 20.5927 27.4043 17.8428 23.997 17.8428ZM23.997 28.0017C21.7935 28.0017 19.9953 26.2035 19.9953 24C19.9953 21.7965 21.7935 19.9983 23.997 19.9983C26.2005 19.9983 27.9987 21.7965 27.9987 24C27.9987 26.2035 26.2005 28.0017 23.997 28.0017ZM30.4063 16.1557C29.6108 16.1557 28.9684 16.7981 28.9684 17.5937C28.9684 18.3892 29.6108 19.0316 30.4063 19.0316C31.2019 19.0316 31.8443 18.3922 31.8443 17.5937C31.8445 17.4048 31.8075 17.2177 31.7353 17.0431C31.6631 16.8685 31.5572 16.7099 31.4237 16.5763C31.2901 16.4428 31.1315 16.3369 30.9569 16.2647C30.7823 16.1925 30.5952 16.1555 30.4063 16.1557ZM35.9991 24C35.9991 22.3429 36.0141 20.7008 35.9211 19.0467C35.828 17.1254 35.3897 15.4202 33.9847 14.0153C32.5768 12.6073 30.8746 12.172 28.9533 12.0789C27.2962 11.9859 25.6541 12.0009 24 12.0009C22.3429 12.0009 20.7008 11.9859 19.0467 12.0789C17.1254 12.172 15.4202 12.6103 14.0153 14.0153C12.6073 15.4232 12.172 17.1254 12.0789 19.0467C11.9859 20.7038 12.0009 22.3459 12.0009 24C12.0009 25.6541 11.9859 27.2992 12.0789 28.9533C12.172 30.8746 12.6103 32.5798 14.0153 33.9847C15.4232 35.3927 17.1254 35.828 19.0467 35.9211C20.7038 36.0141 22.3459 35.9991 24 35.9991C25.6571 35.9991 27.2992 36.0141 28.9533 35.9211C30.8746 35.828 32.5798 35.3897 33.9847 33.9847C35.3927 32.5768 35.828 30.8746 35.9211 28.9533C36.0171 27.2992 35.9991 25.6571 35.9991 24ZM33.3573 31.0788C33.1382 31.6252 32.874 32.0334 32.4507 32.4537C32.0274 32.877 31.6221 33.1412 31.0758 33.3603C29.4967 33.9877 25.7472 33.8467 23.997 33.8467C22.2468 33.8467 18.4943 33.9877 16.9152 33.3633C16.3688 33.1442 15.9606 32.88 15.5403 32.4567C15.117 32.0334 14.8528 31.6282 14.6337 31.0818C14.0092 29.4997 14.1503 25.7502 14.1503 24C14.1503 22.2498 14.0092 18.4973 14.6337 16.9182C14.8528 16.3718 15.117 15.9636 15.5403 15.5433C15.9636 15.123 16.3688 14.8558 16.9152 14.6367C18.4943 14.0123 22.2468 14.1533 23.997 14.1533C25.7472 14.1533 29.4997 14.0123 31.0788 14.6367C31.6252 14.8558 32.0334 15.12 32.4537 15.5433C32.877 15.9666 33.1412 16.3718 33.3603 16.9182C33.9847 18.4973 33.8437 22.2498 33.8437 24C33.8437 25.7502 33.9847 29.4997 33.3573 31.0788Z" fill="#bae6fd"/>
</g>
</svg>
