<svg width="48" height="48" viewBox="0 0 48 48" fill="none" xmlns="http://www.w3.org/2000/svg">
<g id="Frame 20">
<rect width="48" height="48" rx="12" fill="#0369a1"/>
<path id="Vector" d="M32 12C33.0609 12 34.0783 12.4214 34.8284 13.1716C35.5786 13.9217 36 14.9391 36 16V32C36 33.0609 35.5786 34.0783 34.8284 34.8284C34.0783 35.5786 33.0609 36 32 36H16C14.9391 36 13.9217 35.5786 13.1716 34.8284C12.4214 34.0783 12 33.0609 12 32V16C12 14.9391 12.4214 13.9217 13.1716 13.1716C13.9217 12.4214 14.9391 12 16 12H32ZM32 14.6667H16C15.6464 14.6667 15.3072 14.8071 15.0572 15.0572C14.8071 15.3072 14.6667 15.6464 14.6667 16V32C14.6667 32.3536 14.8071 32.6928 15.0572 32.9428C15.3072 33.1929 15.6464 33.3333 16 33.3333H32C32.3536 33.3333 32.6928 33.1929 32.9428 32.9428C33.1929 32.6928 33.3333 32.3536 33.3333 32V16C33.3333 15.6464 33.1929 15.3072 32.9428 15.0572C32.6928 14.8071 32.3536 14.6667 32 14.6667ZM18.6667 21.3333C18.9932 21.3334 19.3085 21.4533 19.5525 21.6703C19.7965 21.8873 19.9525 22.1863 19.9907 22.5107L20 22.6667V29.3333C19.9996 29.6732 19.8695 30 19.6362 30.2472C19.4029 30.4943 19.0841 30.643 18.7448 30.6629C18.4056 30.6828 18.0715 30.5724 17.8109 30.3543C17.5503 30.1362 17.3828 29.8268 17.3427 29.4893L17.3333 29.3333V22.6667C17.3333 22.313 17.4738 21.9739 17.7239 21.7239C17.9739 21.4738 18.313 21.3333 18.6667 21.3333ZM22.6667 20C22.9789 20 23.2813 20.1095 23.5211 20.3096C23.7608 20.5096 23.9228 20.7875 23.9787 21.0947C24.247 20.9391 24.5244 20.7997 24.8093 20.6773C25.6987 20.2973 27.0307 20.088 28.2333 20.4653C28.864 20.6653 29.4973 21.0387 29.9667 21.6747C30.3867 22.2413 30.6133 22.9307 30.6587 23.7053L30.6667 24V29.3333C30.6663 29.6732 30.5362 30 30.3029 30.2472C30.0696 30.4943 29.7507 30.643 29.4115 30.6629C29.0722 30.6828 28.7382 30.5724 28.4776 30.3543C28.217 30.1362 28.0495 29.8268 28.0093 29.4893L28 29.3333V24C28 23.56 27.8933 23.3547 27.824 23.26C27.7245 23.1362 27.5873 23.0482 27.4333 23.0093C26.9693 22.8627 26.3013 22.94 25.8573 23.1293C25.1907 23.4147 24.58 23.8627 24.164 24.2773L24 24.4533V29.3333C23.9996 29.6732 23.8695 30 23.6362 30.2472C23.4029 30.4943 23.0841 30.643 22.7448 30.6629C22.4056 30.6828 22.0715 30.5724 21.8109 30.3543C21.5503 30.1362 21.3828 29.8268 21.3427 29.4893L21.3333 29.3333V21.3333C21.3333 20.9797 21.4738 20.6406 21.7239 20.3905C21.9739 20.1405 22.313 20 22.6667 20ZM18.6667 17.3333C19.0203 17.3333 19.3594 17.4738 19.6095 17.7239C19.8595 17.9739 20 18.313 20 18.6667C20 19.0203 19.8595 19.3594 19.6095 19.6095C19.3594 19.8595 19.0203 20 18.6667 20C18.313 20 17.9739 19.8595 17.7239 19.6095C17.4738 19.3594 17.3333 19.0203 17.3333 18.6667C17.3333 18.313 17.4738 17.9739 17.7239 17.7239C17.9739 17.4738 18.313 17.3333 18.6667 17.3333Z" fill="#bae6fd"/>
</g>
</svg>
